<?xml version="1.0" encoding="UTF-8"?>
<svg id="_レイヤー_2" data-name="レイヤー 2" xmlns="http://www.w3.org/2000/svg" viewBox="0 0 418.28 99.21">
  <defs>
    <style>
      .cls-1 {
        fill: #898989;
      }
    </style>
  </defs>
  <g id="logo">
    <g>
      <g>
        <g>
          <path class="cls-1" d="M73.88,6.23c-6.63-3.72-14.21-5.92-22.28-6.23-1.82,1.87-3.53,3.85-5.08,5.95-11.51,15.54-15.17,36.59-9.58,55.1,0,0-.85-37.91,36.95-54.82Z"/>
          <path class="cls-1" d="M11.73,17.54c-1.56,8.48-1.45,17.25.56,25.64,4.51,18.8,18.28,35.14,36.05,42.76,0,0-40.39-32.39-8.65-85.03-11.13,2.27-20.89,8.27-27.95,16.63Z"/>
          <path class="cls-1" d="M49.66,99.21c8.17,0,15.86-2.01,22.65-5.5-13.29,1.05-55.62-.51-69.83-59.59-1.59,4.86-2.48,10.04-2.48,15.44,0,27.42,22.23,49.66,49.66,49.66Z"/>
          <path class="cls-1" d="M91.53,22.94c-2.8-4.39-6.23-8.33-10.22-11.64-13.19,4.26-25,12.85-32.79,24.34,0,0,17.65-15.04,43.01-12.7Z"/>
        </g>
        <circle class="cls-1" cx="70.18" cy="76.55" r="7.53"/>
      </g>
      <g>
        <g>
          <path class="cls-1" d="M133.76,57.25h16.68v-15.13h5.84v38.67h-5.84v-18.06h-16.68v18.06h-5.84v-38.67h5.84v15.13Z"/>
          <path class="cls-1" d="M185.02,56.4h5.66v24.4h-5.66v-2.56c-2.32,2.17-4.82,3.26-7.49,3.26-3.37,0-6.16-1.22-8.37-3.66-2.19-2.49-3.28-5.59-3.28-9.32s1.09-6.7,3.28-9.14,4.93-3.66,8.22-3.66c2.84,0,5.39,1.17,7.64,3.51v-2.83ZM171.64,68.52c0,2.34.62,4.24,1.88,5.71,1.28,1.49,2.91,2.23,4.86,2.23,2.09,0,3.77-.72,5.06-2.15,1.28-1.48,1.93-3.37,1.93-5.66s-.64-4.17-1.93-5.66c-1.29-1.45-2.96-2.18-5.01-2.18-1.94,0-3.56.73-4.86,2.2-1.29,1.49-1.93,3.32-1.93,5.51Z"/>
          <path class="cls-1" d="M205.99,94.07h-5.64v-37.67h5.64v2.66c2.22-2.22,4.74-3.33,7.57-3.33,3.36,0,6.12,1.23,8.29,3.71,2.2,2.46,3.31,5.55,3.31,9.29s-1.09,6.71-3.28,9.14c-2.17,2.42-4.91,3.63-8.21,3.63-2.86,0-5.41-1.14-7.67-3.43v16.01ZM219.39,68.75c0-2.34-.64-4.24-1.9-5.71-1.28-1.49-2.9-2.23-4.86-2.23-2.07,0-3.75.72-5.03,2.15-1.29,1.44-1.93,3.32-1.93,5.66s.64,4.17,1.93,5.66c1.27,1.45,2.94,2.18,5.01,2.18,1.95,0,3.57-.73,4.83-2.2,1.3-1.47,1.95-3.31,1.95-5.51Z"/>
          <path class="cls-1" d="M239.94,61.66v19.14h-5.64v-19.14h-2.41v-5.26h2.41v-8.94h5.64v8.94h4.38v5.26h-4.38Z"/>
          <path class="cls-1" d="M249.87,46.25c0-.99.36-1.84,1.08-2.56.72-.72,1.58-1.08,2.58-1.08s1.89.36,2.61,1.08c.72.7,1.08,1.56,1.08,2.58s-.36,1.89-1.08,2.61c-.7.72-1.56,1.08-2.58,1.08s-1.89-.36-2.6-1.08c-.72-.72-1.08-1.6-1.08-2.63ZM256.36,56.4v24.4h-5.64v-24.4h5.64Z"/>
          <path class="cls-1" d="M285.05,57.45v7.49c-1.29-1.57-2.44-2.65-3.46-3.23-1-.6-2.18-.9-3.53-.9-2.12,0-3.88.74-5.28,2.23-1.4,1.49-2.1,3.35-2.1,5.59s.67,4.17,2.03,5.64c1.37,1.47,3.11,2.2,5.23,2.2,1.35,0,2.55-.29,3.58-.88,1-.57,2.18-1.67,3.53-3.31v7.44c-2.29,1.19-4.58,1.78-6.86,1.78-3.77,0-6.93-1.22-9.47-3.66-2.54-2.46-3.81-5.5-3.81-9.14s1.28-6.71,3.86-9.22c2.57-2.51,5.73-3.76,9.47-3.76,2.41,0,4.68.57,6.81,1.73Z"/>
          <path class="cls-1" d="M307.25,60.56l-4.66,2.48c-.74-1.5-1.65-2.26-2.73-2.26-.52,0-.96.17-1.33.51-.37.34-.55.78-.55,1.31,0,.94,1.08,1.86,3.26,2.78,2.99,1.29,5,2.47,6.04,3.56s1.55,2.55,1.55,4.38c0,2.35-.87,4.33-2.61,5.91-1.69,1.5-3.72,2.25-6.11,2.25-4.09,0-6.99-1.99-8.69-5.99l4.81-2.23c.67,1.17,1.18,1.91,1.53,2.23.69.63,1.5.95,2.46.95,1.9,0,2.86-.87,2.86-2.61,0-1-.74-1.94-2.2-2.81-.57-.28-1.14-.56-1.7-.82-.57-.27-1.14-.54-1.73-.83-1.63-.8-2.79-1.6-3.46-2.41-.85-1.02-1.28-2.33-1.28-3.93,0-2.12.73-3.87,2.18-5.26,1.48-1.39,3.29-2.08,5.41-2.08,3.12,0,5.44,1.61,6.97,4.83Z"/>
          <path class="cls-1" d="M341.76,42.12v33.19h11.37v5.49h-17.21v-38.67h5.84Z"/>
          <path class="cls-1" d="M378.15,56.4h5.66v24.4h-5.66v-2.56c-2.32,2.17-4.82,3.26-7.49,3.26-3.37,0-6.16-1.22-8.37-3.66-2.19-2.49-3.28-5.59-3.28-9.32s1.09-6.7,3.28-9.14,4.93-3.66,8.22-3.66c2.84,0,5.39,1.17,7.64,3.51v-2.83ZM364.77,68.52c0,2.34.62,4.24,1.88,5.71,1.28,1.49,2.91,2.23,4.86,2.23,2.09,0,3.77-.72,5.06-2.15,1.28-1.48,1.93-3.37,1.93-5.66s-.64-4.17-1.93-5.66c-1.29-1.45-2.96-2.18-5.01-2.18-1.94,0-3.56.73-4.86,2.2-1.29,1.49-1.93,3.32-1.93,5.51Z"/>
          <path class="cls-1" d="M399.12,38.49v20.74c2.26-2.34,4.81-3.51,7.67-3.51,3.29,0,6.03,1.23,8.21,3.68,2.19,2.44,3.28,5.48,3.28,9.12s-1.1,6.86-3.31,9.32c-2.19,2.44-4.95,3.66-8.29,3.66-2.82,0-5.34-1.08-7.57-3.26v2.56h-5.64v-42.31h5.64ZM412.52,68.77c0-2.34-.64-4.24-1.9-5.71-1.28-1.5-2.9-2.25-4.83-2.25-2.07,0-3.76.72-5.06,2.18-1.29,1.44-1.93,3.31-1.93,5.61s.63,4.27,1.9,5.69c1.27,1.45,2.94,2.18,5.01,2.18,1.95,0,3.57-.73,4.86-2.18,1.3-1.47,1.95-3.31,1.95-5.51Z"/>
        </g>
        <g>
          <path class="cls-1" d="M128.39,31.47V10.79l14.12,14.77v-13.45h2.92v20.54l-14.12-14.73v13.55h-2.92Z"/>
          <path class="cls-1" d="M154.27,12.11v19.36h-2.92V12.11h2.92Z"/>
          <path class="cls-1" d="M165.55,14.85v16.61h-2.92V14.85h-4.45v-2.75h11.81v2.75h-4.44Z"/>
          <path class="cls-1" d="M183.4,26.02h-8.75c.07,1,.4,1.8.98,2.39.58.59,1.32.88,2.22.88.7,0,1.28-.17,1.74-.5.45-.33.97-.95,1.54-1.85l2.38,1.33c-.37.63-.76,1.16-1.17,1.61-.41.45-.85.82-1.31,1.1-.47.29-.98.5-1.52.63-.54.13-1.13.2-1.77.2-1.82,0-3.28-.58-4.39-1.75-1.1-1.18-1.65-2.74-1.65-4.69s.54-3.5,1.6-4.69c1.08-1.18,2.51-1.77,4.29-1.77s3.22.57,4.26,1.72c1.04,1.14,1.55,2.71,1.55,4.73v.66ZM180.51,23.72c-.39-1.5-1.34-2.26-2.85-2.26-.34,0-.66.05-.96.16-.3.1-.58.26-.82.45s-.46.43-.63.71c-.17.28-.31.59-.4.94h5.67Z"/>
          <path class="cls-1" d="M197.28,19.78v3.75c-.64-.79-1.22-1.33-1.73-1.62-.5-.3-1.09-.45-1.77-.45-1.06,0-1.94.37-2.64,1.12-.7.74-1.05,1.68-1.05,2.8s.34,2.09,1.01,2.82c.69.74,1.56,1.1,2.62,1.1.68,0,1.28-.15,1.79-.44.5-.29,1.09-.84,1.77-1.65v3.72c-1.14.59-2.29.89-3.43.89-1.89,0-3.47-.61-4.74-1.83-1.27-1.23-1.91-2.75-1.91-4.58s.64-3.36,1.93-4.61,2.87-1.88,4.74-1.88c1.2,0,2.34.29,3.41.86Z"/>
          <path class="cls-1" d="M201.96,10.29h2.82v9.98c1-.9,2.11-1.35,3.32-1.35,1.38,0,2.48.45,3.31,1.34.7.78,1.05,2.02,1.05,3.72v7.49h-2.82v-7.22c0-.98-.17-1.69-.52-2.12-.35-.44-.91-.66-1.67-.66-.99,0-1.68.31-2.08.92-.39.62-.59,1.68-.59,3.18v5.91h-2.82V10.29Z"/>
        </g>
      </g>
    </g>
  </g>
</svg>
