<svg xmlns="http://www.w3.org/2000/svg" style="background: transparent; background-color: transparent;" xmlns:xlink="http://www.w3.org/1999/xlink" version="1.1" width="8220px" height="3020px" viewBox="-0.5 -0.5 8220 3020" content="&lt;mxfile scale=&quot;10&quot; border=&quot;5&quot;&gt;&lt;diagram id=&quot;D8h-lf_vaP4hDLbUIdyT&quot; name=&quot;ページ1&quot;&gt;5Vpfb6M4EP80lnoPXQEGYh6BJNuHRlpdTrq9pxUNTmBFcM4h22Q//Q1gB4ghaRvSJlepUsfjsTEz85s/Jgj7y+1XHqyiCQtpggwt3CI8RIah67YJ/3LOruQMDFwyFjwOhVDFmMa/qWBqgruJQ7puCGaMJVm8ajJnLE3pLGvwAs7Zc1NszpLmU1fBgiqM6SxIVO7fcZhFJdfRtIr/QONFJJ9sy5llIIXFFusoCNlzySpk8AhhnzOWldRy69MkV57US7nRuGN2fzBO0+xFC8TB1tlOvhwN4V3FkPEsYguWBsmo4npRtkxgUgcSHsN332GgycE/+eCLJYfDbX1yuJOjbZx9l3sAXVsFo2pRPpBrypPmx+t8WalVtuEzIWUI/wj4ggopZ69o8FDKlhROBiKcJkEW/2ruHghXWezlxFKX82BXE1ixOM3WtZ2/5QwQkF5PhKqFzxu61bTMCXmMG/JAlCeQo9qrVKzC2h2WFy/4K0g24pU/oSvgW3QFiCe9uoKheMJ0t87oEnjw6nYCuvKeOFCLnEKjMfJ8RAga2cgdIzJCI4yIgTynIODPlgQWhDOQqxzFyTjbpCENhWWfozij01VQ2OwZ0kfTycRJKc/o9rjpVaOKBeaBMh0xfq4iuS7DYlSL4pbW7QY1UxwH3f8eY1jFmPkRGMPOUcyclDf6DrfmJ7S8fYuW1/WeLe8o4fUh4GGrOzwGT1AqNwwfJPEiBXoGuqccGHnwi6EWdcXEMg7Dwls4Xce/g6div9yMQlGwueUha3gseopCWSxGsmpsmrwDx2Kne+2LLmuK1xlYsYiFmyvYfL4GlzqMs68zA1bLHcu/e/iRAhOoBf23JLKIZsGPh3KQMEh72kQMmiIToP5Qs1nElk+b9btksn31LjyXtGQyuyWT7ZlnpTJ8NKClLO0pgr0tGplqNLLOjEYv1YyhVtZTNs9uD/AdxXEFeIyx3oyd5+G/V8CbrwL89MPRbBqnC1OnBc1OH2C2LlOdDK6nPLGupDwZaEcLzZPyukGOyx82i03585tFtVuU/Z8luz1bcsbN1tDI+8WRlfeOrpm3jyDpDospHbnQWZrI8xDxChkLue1eedUxsyPJVDETcG41DHRvnBc05Tam2VzSSxDV7csEhquOC4P3KhRaatL8TmVQQMBBgGRXq6HDQg7gYpxPuToi/u2hoyPi1tChm2fCQXZ1uAkycglwDD4hOMgtJk1s9tvTtxWXIvfpgvB8eQlKJOHWpmxEzALLAGoPeVjAHECdJ0GCyLDIjyS/Xr05mHcE0ArmmmPbvcD88DL3Aii3FFNPWBpnxc3A3ePjpKVreOcbbcs+/J7QchGgXehK21bU8y0JwEf4h6vlsBJu6afIhZQyUJTyJ50ngBt2fWpp85ZL6YUoevmLTa5OI9h4P43opDW8v7yGeEMt8HOzXMkHBHz25uqgl+/oJxtYRc1lNSJWVZp+bU1hD45+YD8pL8/VW02hJpqiGzCR4xcN8QB5bquzXHUt0FEvip2gFLCIgMCZfnPvOM0lvWR/9eNNfovo360h7bd8FPA//BoRH5REbWmvp2tEGFa/VCp1W/3eC4/+Aw==&lt;/diagram&gt;&lt;/mxfile&gt;"><defs><style xmlns="http://www.w3.org/1999/xhtml" id="MJX-SVG-styles">
mjx-container[jax="SVG"] {
  direction: ltr;
}

mjx-container[jax="SVG"] &gt; svg {
  overflow: visible;
  min-height: 1px;
  min-width: 1px;
}

mjx-container[jax="SVG"] &gt; svg a {
  fill: blue;
  stroke: blue;
}

mjx-container[jax="SVG"][display="true"] {
  display: block;
  text-align: center;
  margin: 1em 0;
}

mjx-container[jax="SVG"][display="true"][width="full"] {
  display: flex;
}

mjx-container[jax="SVG"][justify="left"] {
  text-align: left;
}

mjx-container[jax="SVG"][justify="right"] {
  text-align: right;
}

g[data-mml-node="merror"] &gt; g {
  fill: red;
  stroke: red;
}

g[data-mml-node="merror"] &gt; rect[data-background] {
  fill: yellow;
  stroke: none;
}

g[data-mml-node="mtable"] &gt; line[data-line], svg[data-table] &gt; g &gt; line[data-line] {
  stroke-width: 70px;
  fill: none;
}

g[data-mml-node="mtable"] &gt; rect[data-frame], svg[data-table] &gt; g &gt; rect[data-frame] {
  stroke-width: 70px;
  fill: none;
}

g[data-mml-node="mtable"] &gt; .mjx-dashed, svg[data-table] &gt; g &gt; .mjx-dashed {
  stroke-dasharray: 140;
}

g[data-mml-node="mtable"] &gt; .mjx-dotted, svg[data-table] &gt; g &gt; .mjx-dotted {
  stroke-linecap: round;
  stroke-dasharray: 0,140;
}

g[data-mml-node="mtable"] &gt; g &gt; svg {
  overflow: visible;
}

[jax="SVG"] mjx-tool {
  display: inline-block;
  position: relative;
  width: 0;
  height: 0;
}

[jax="SVG"] mjx-tool &gt; mjx-tip {
  position: absolute;
  top: 0;
  left: 0;
}

mjx-tool &gt; mjx-tip {
  display: inline-block;
  padding: .2em;
  border: 1px solid #888;
  font-size: 70%;
  background-color: #F8F8F8;
  color: black;
  box-shadow: 2px 2px 5px #AAAAAA;
}

g[data-mml-node="maction"][data-toggle] {
  cursor: pointer;
}

mjx-status {
  display: block;
  position: fixed;
  left: 1em;
  bottom: 1em;
  min-width: 25%;
  padding: .2em .4em;
  border: 1px solid #888;
  font-size: 90%;
  background-color: #F8F8F8;
  color: black;
}

foreignObject[data-mjx-xml] {
  font-family: initial;
  line-height: normal;
  overflow: visible;
}

mjx-container[jax="SVG"] path[data-c], mjx-container[jax="SVG"] use[data-c] {
  stroke-width: 3;
}
</style></defs><g><g><path d="M 1110 1350 L 1310 1350 Q 1410 1350 1410 1450 L 1410 2450 Q 1410 2550 1510 2550 L 2946.32 2550" fill="none" stroke="#000000" stroke-width="10" stroke-miterlimit="10" pointer-events="stroke" style="stroke: light-dark(rgb(0, 0, 0), rgb(255, 255, 255));"/><path d="M 2998.82 2550 L 2928.82 2585 L 2946.32 2550 L 2928.82 2515 Z" fill="#000000" stroke="#000000" stroke-width="10" stroke-miterlimit="10" pointer-events="all" style="fill: light-dark(rgb(0, 0, 0), rgb(255, 255, 255)); stroke: light-dark(rgb(0, 0, 0), rgb(255, 255, 255));"/></g><g><path d="M 1110 1350 L 1310 1350 Q 1410 1350 1410 1250 L 1410 900 Q 1410 800 1510 800 L 1646.32 800" fill="none" stroke="#000000" stroke-width="10" stroke-miterlimit="10" pointer-events="stroke" style="stroke: light-dark(rgb(0, 0, 0), rgb(255, 255, 255));"/><path d="M 1698.82 800 L 1628.82 835 L 1646.32 800 L 1628.82 765 Z" fill="#000000" stroke="#000000" stroke-width="10" stroke-miterlimit="10" pointer-events="all" style="fill: light-dark(rgb(0, 0, 0), rgb(255, 255, 255)); stroke: light-dark(rgb(0, 0, 0), rgb(255, 255, 255));"/></g><g><rect x="10" y="1100" width="1100" height="500" fill="#ffffff" stroke="#000000" stroke-width="10" pointer-events="all" style="fill: light-dark(#ffffff, var(--ge-dark-color, #121212)); stroke: light-dark(rgb(0, 0, 0), rgb(255, 255, 255));"/></g><g><g transform="translate(-0.5 -0.5)scale(10)"><switch><foreignObject style="overflow: visible; text-align: left;" pointer-events="none" width="100%" height="100%" requiredFeatures="http://www.w3.org/TR/SVG11/feature#Extensibility"><div xmlns="http://www.w3.org/1999/xhtml" style="display: flex; align-items: unsafe center; justify-content: unsafe center; width: 108px; height: 1px; padding-top: 135px; margin-left: 2px;"><div style="box-sizing: border-box; font-size: 0; text-align: center; color: #000000; "><div style="display: inline-block; font-size: 12px; font-family: &quot;Helvetica&quot;; color: light-dark(#000000, #ffffff); line-height: 1.2; pointer-events: all; white-space: normal; word-wrap: normal; ">System 1<br />（毎ステップ）</div></div></div></foreignObject><text x="56" y="139" fill="light-dark(#000000, #ffffff)" font-family="&quot;Helvetica&quot;" font-size="12px" text-anchor="middle">System 1...</text></switch></g></g><g><path d="M 3310 800 L 3410 800 Q 3510 800 3510 900 L 3510 1450 Q 3510 1550 3610 1550 L 3746.32 1550" fill="none" stroke="#000000" stroke-width="10" stroke-miterlimit="10" pointer-events="stroke" style="stroke: light-dark(rgb(0, 0, 0), rgb(255, 255, 255));"/><path d="M 3798.82 1550 L 3728.82 1585 L 3746.32 1550 L 3728.82 1515 Z" fill="#000000" stroke="#000000" stroke-width="10" stroke-miterlimit="10" pointer-events="all" style="fill: light-dark(rgb(0, 0, 0), rgb(255, 255, 255)); stroke: light-dark(rgb(0, 0, 0), rgb(255, 255, 255));"/></g><g><path d="M 3310 800 L 3410 800 Q 3510 800 3510 700 L 3510 450 Q 3510 350 3610 350 L 7346.32 350" fill="none" stroke="#000000" stroke-width="10" stroke-miterlimit="10" pointer-events="stroke" style="stroke: light-dark(rgb(0, 0, 0), rgb(255, 255, 255));"/><path d="M 7398.82 350 L 7328.82 385 L 7346.32 350 L 7328.82 315 Z" fill="#000000" stroke="#000000" stroke-width="10" stroke-miterlimit="10" pointer-events="all" style="fill: light-dark(rgb(0, 0, 0), rgb(255, 255, 255)); stroke: light-dark(rgb(0, 0, 0), rgb(255, 255, 255));"/></g><g><g transform="translate(-0.5 -0.5)scale(10)"><switch><foreignObject style="overflow: visible; text-align: left;" pointer-events="none" width="100%" height="100%" requiredFeatures="http://www.w3.org/TR/SVG11/feature#Extensibility"><div xmlns="http://www.w3.org/1999/xhtml" style="display: flex; align-items: unsafe center; justify-content: unsafe center; width: 1px; height: 1px; padding-top: 35px; margin-left: 542px;"><div style="box-sizing: border-box; font-size: 0; text-align: center; color: #000000; background-color: #ffffff; "><div style="display: inline-block; font-size: 11px; font-family: &quot;Helvetica&quot;; color: light-dark(#000000, #ffffff); line-height: 1.2; pointer-events: all; background-color: light-dark(#ffffff, var(--ge-dark-color, #121212)); white-space: nowrap; ">Hard</div></div></div></foreignObject><text x="542" y="39" fill="light-dark(#000000, #ffffff)" font-family="&quot;Helvetica&quot;" font-size="11px" text-anchor="middle">Hard</text></switch></g></g><g><path d="M 2510 0 L 3310 800 L 2510 1600 L 1710 800 Z" fill="#ffffff" stroke="#000000" stroke-width="10" stroke-miterlimit="10" pointer-events="all" style="fill: light-dark(#ffffff, var(--ge-dark-color, #121212)); stroke: light-dark(rgb(0, 0, 0), rgb(255, 255, 255));"/></g><g><g transform="translate(-0.5 -0.5)scale(10)"><switch><foreignObject style="overflow: visible; text-align: left;" pointer-events="none" width="100%" height="100%" requiredFeatures="http://www.w3.org/TR/SVG11/feature#Extensibility"><div xmlns="http://www.w3.org/1999/xhtml" style="display: flex; align-items: unsafe center; justify-content: unsafe center; width: 158px; height: 1px; padding-top: 80px; margin-left: 172px;"><div style="box-sizing: border-box; font-size: 0; text-align: center; color: #000000; "><div style="display: inline-block; font-size: 12px; font-family: &quot;Helvetica&quot;; color: light-dark(#000000, #ffffff); line-height: 1.2; pointer-events: all; white-space: normal; word-wrap: normal; "><mjx-container class="MathJax" jax="SVG"><svg xmlns="http://www.w3.org/2000/svg" width="19.554ex" height="1.952ex" role="img" focusable="false" viewBox="0 -705 8642.9 862.8" xmlns:xlink="http://www.w3.org/1999/xlink" style="vertical-align: -0.357ex;"><defs><path id="MJX-11-TEX-I-1D43B" d="M228 637Q194 637 192 641Q191 643 191 649Q191 673 202 682Q204 683 219 683Q260 681 355 681Q389 681 418 681T463 682T483 682Q499 682 499 672Q499 670 497 658Q492 641 487 638H485Q483 638 480 638T473 638T464 637T455 637Q416 636 405 634T387 623Q384 619 355 500Q348 474 340 442T328 395L324 380Q324 378 469 378H614L615 381Q615 384 646 504Q674 619 674 627T617 637Q594 637 587 639T580 648Q580 650 582 660Q586 677 588 679T604 682Q609 682 646 681T740 680Q802 680 835 681T871 682Q888 682 888 672Q888 645 876 638H874Q872 638 869 638T862 638T853 637T844 637Q805 636 794 634T776 623Q773 618 704 340T634 58Q634 51 638 51Q646 48 692 46H723Q729 38 729 37T726 19Q722 6 716 0H701Q664 2 567 2Q533 2 504 2T458 2T437 1Q420 1 420 10Q420 15 423 24Q428 43 433 45Q437 46 448 46H454Q481 46 514 49Q520 50 522 50T528 55T534 64T540 82T547 110T558 153Q565 181 569 198Q602 330 602 331T457 332H312L279 197Q245 63 245 58Q245 51 253 49T303 46H334Q340 38 340 37T337 19Q333 6 327 0H312Q275 2 178 2Q144 2 115 2T69 2T48 1Q31 1 31 10Q31 12 34 24Q39 43 44 45Q48 46 59 46H65Q92 46 125 49Q139 52 144 61Q147 65 216 339T285 628Q285 635 228 637Z"/><path id="MJX-11-TEX-I-1D45B" d="M21 287Q22 293 24 303T36 341T56 388T89 425T135 442Q171 442 195 424T225 390T231 369Q231 367 232 367L243 378Q304 442 382 442Q436 442 469 415T503 336T465 179T427 52Q427 26 444 26Q450 26 453 27Q482 32 505 65T540 145Q542 153 560 153Q580 153 580 145Q580 144 576 130Q568 101 554 73T508 17T439 -10Q392 -10 371 17T350 73Q350 92 386 193T423 345Q423 404 379 404H374Q288 404 229 303L222 291L189 157Q156 26 151 16Q138 -11 108 -11Q95 -11 87 -5T76 7T74 17Q74 30 112 180T152 343Q153 348 153 366Q153 405 129 405Q91 405 66 305Q60 285 60 284Q58 278 41 278H27Q21 284 21 287Z"/><path id="MJX-11-TEX-N-2265" d="M83 616Q83 624 89 630T99 636Q107 636 253 568T543 431T687 361Q694 356 694 346T687 331Q685 329 395 192L107 56H101Q83 58 83 76Q83 77 83 79Q82 86 98 95Q117 105 248 167Q326 204 378 228L626 346L360 472Q291 505 200 548Q112 589 98 597T83 616ZM84 -118Q84 -108 99 -98H678Q694 -104 694 -118Q694 -130 679 -138H98Q84 -131 84 -118Z"/><path id="MJX-11-TEX-I-1D703" d="M35 200Q35 302 74 415T180 610T319 704Q320 704 327 704T339 705Q393 701 423 656Q462 596 462 495Q462 380 417 261T302 66T168 -10H161Q125 -10 99 10T60 63T41 130T35 200ZM383 566Q383 668 330 668Q294 668 260 623T204 521T170 421T157 371Q206 370 254 370L351 371Q352 372 359 404T375 484T383 566ZM113 132Q113 26 166 26Q181 26 198 36T239 74T287 161T335 307L340 324H145Q145 321 136 286T120 208T113 132Z"/><path id="MJX-11-TEX-N-2228" d="M55 580Q56 587 61 592T75 598Q86 598 96 580L333 48L570 580Q579 596 586 597Q588 598 591 598Q609 598 611 580Q611 574 546 426T415 132T348 -15Q343 -22 333 -22T318 -15Q317 -14 252 131T121 425T55 580Z"/><path id="MJX-11-TEX-I-1D440" d="M289 629Q289 635 232 637Q208 637 201 638T194 648Q194 649 196 659Q197 662 198 666T199 671T201 676T203 679T207 681T212 683T220 683T232 684Q238 684 262 684T307 683Q386 683 398 683T414 678Q415 674 451 396L487 117L510 154Q534 190 574 254T662 394Q837 673 839 675Q840 676 842 678T846 681L852 683H948Q965 683 988 683T1017 684Q1051 684 1051 673Q1051 668 1048 656T1045 643Q1041 637 1008 637Q968 636 957 634T939 623Q936 618 867 340T797 59Q797 55 798 54T805 50T822 48T855 46H886Q892 37 892 35Q892 19 885 5Q880 0 869 0Q864 0 828 1T736 2Q675 2 644 2T609 1Q592 1 592 11Q592 13 594 25Q598 41 602 43T625 46Q652 46 685 49Q699 52 704 61Q706 65 742 207T813 490T848 631L654 322Q458 10 453 5Q451 4 449 3Q444 0 433 0Q418 0 415 7Q413 11 374 317L335 624L267 354Q200 88 200 79Q206 46 272 46H282Q288 41 289 37T286 19Q282 3 278 1Q274 0 267 0Q265 0 255 0T221 1T157 2Q127 2 95 1T58 0Q43 0 39 2T35 11Q35 13 38 25T43 40Q45 46 65 46Q135 46 154 86Q158 92 223 354T289 629Z"/><path id="MJX-11-TEX-N-2264" d="M674 636Q682 636 688 630T694 615T687 601Q686 600 417 472L151 346L399 228Q687 92 691 87Q694 81 694 76Q694 58 676 56H670L382 192Q92 329 90 331Q83 336 83 348Q84 359 96 365Q104 369 382 500T665 634Q669 636 674 636ZM84 -118Q84 -108 99 -98H678Q694 -104 694 -118Q694 -130 679 -138H98Q84 -131 84 -118Z"/></defs><g stroke="currentColor" fill="currentColor" stroke-width="0" transform="scale(1,-1)"><g data-mml-node="math"><g data-mml-node="msub"><g data-mml-node="mi"><use data-c="1D43B" xlink:href="#MJX-11-TEX-I-1D43B"/></g><g data-mml-node="mi" transform="translate(864,-150) scale(0.707)"><use data-c="1D45B" xlink:href="#MJX-11-TEX-I-1D45B"/></g></g><g data-mml-node="mo" transform="translate(1616,0)"><use data-c="2265" xlink:href="#MJX-11-TEX-N-2265"/></g><g data-mml-node="msub" transform="translate(2671.8,0)"><g data-mml-node="mi"><use data-c="1D703" xlink:href="#MJX-11-TEX-I-1D703"/></g><g data-mml-node="mi" transform="translate(502,-150) scale(0.707)"><use data-c="1D43B" xlink:href="#MJX-11-TEX-I-1D43B"/></g></g><g data-mml-node="mo" transform="translate(4074,0)"><use data-c="2228" xlink:href="#MJX-11-TEX-N-2228"/></g><g data-mml-node="mi" transform="translate(4963.2,0)"><use data-c="1D440" xlink:href="#MJX-11-TEX-I-1D440"/></g><g data-mml-node="mo" transform="translate(6292,0)"><use data-c="2264" xlink:href="#MJX-11-TEX-N-2264"/></g><g data-mml-node="msub" transform="translate(7347.7,0)"><g data-mml-node="mi"><use data-c="1D703" xlink:href="#MJX-11-TEX-I-1D703"/></g><g data-mml-node="mi" transform="translate(502,-150) scale(0.707)"><use data-c="1D440" xlink:href="#MJX-11-TEX-I-1D440"/></g></g></g></g></svg></mjx-container></div></div></div></foreignObject><text x="251" y="84" fill="light-dark(#000000, #ffffff)" font-family="&quot;Helvetica&quot;" font-size="12px" text-anchor="middle">\(H_n \geq \theta_H \lor M...</text></switch></g></g><g><path d="M 4710 1550 L 5146.32 1550" fill="none" stroke="#000000" stroke-width="10" stroke-miterlimit="10" pointer-events="stroke" style="stroke: light-dark(rgb(0, 0, 0), rgb(255, 255, 255));"/><path d="M 5198.82 1550 L 5128.82 1585 L 5146.32 1550 L 5128.82 1515 Z" fill="#000000" stroke="#000000" stroke-width="10" stroke-miterlimit="10" pointer-events="all" style="fill: light-dark(rgb(0, 0, 0), rgb(255, 255, 255)); stroke: light-dark(rgb(0, 0, 0), rgb(255, 255, 255));"/></g><g><g transform="translate(-0.5 -0.5)scale(10)"><switch><foreignObject style="overflow: visible; text-align: left;" pointer-events="none" width="100%" height="100%" requiredFeatures="http://www.w3.org/TR/SVG11/feature#Extensibility"><div xmlns="http://www.w3.org/1999/xhtml" style="display: flex; align-items: unsafe center; justify-content: unsafe center; width: 1px; height: 1px; padding-top: 154px; margin-left: 488px;"><div style="box-sizing: border-box; font-size: 0; text-align: center; color: #000000; background-color: #ffffff; "><div style="display: inline-block; font-size: 11px; font-family: &quot;Helvetica&quot;; color: light-dark(#000000, #ffffff); line-height: 1.2; pointer-events: all; background-color: light-dark(#ffffff, var(--ge-dark-color, #121212)); white-space: nowrap; ">Soft</div></div></div></foreignObject><text x="488" y="158" fill="light-dark(#000000, #ffffff)" font-family="&quot;Helvetica&quot;" font-size="11px" text-anchor="middle">Soft</text></switch></g></g><g><path d="M 4260 1100 L 4710 1550 L 4260 2000 L 3810 1550 Z" fill="#ffffff" stroke="#000000" stroke-width="10" stroke-miterlimit="10" pointer-events="all" style="fill: light-dark(#ffffff, var(--ge-dark-color, #121212)); stroke: light-dark(rgb(0, 0, 0), rgb(255, 255, 255));"/></g><g><g transform="translate(-0.5 -0.5)scale(10)"><switch><foreignObject style="overflow: visible; text-align: left;" pointer-events="none" width="100%" height="100%" requiredFeatures="http://www.w3.org/TR/SVG11/feature#Extensibility"><div xmlns="http://www.w3.org/1999/xhtml" style="display: flex; align-items: unsafe center; justify-content: unsafe center; width: 88px; height: 1px; padding-top: 155px; margin-left: 382px;"><div style="box-sizing: border-box; font-size: 0; text-align: center; color: #000000; "><div style="display: inline-block; font-size: 12px; font-family: &quot;Helvetica&quot;; color: light-dark(#000000, #ffffff); line-height: 1.2; pointer-events: all; white-space: normal; word-wrap: normal; "><mjx-container class="MathJax" jax="SVG"><svg xmlns="http://www.w3.org/2000/svg" width="8.326ex" height="1.97ex" role="img" focusable="false" viewBox="0 -705 3679.9 870.6" xmlns:xlink="http://www.w3.org/1999/xlink" style="vertical-align: -0.375ex;"><defs><path id="MJX-12-TEX-I-1D43B" d="M228 637Q194 637 192 641Q191 643 191 649Q191 673 202 682Q204 683 219 683Q260 681 355 681Q389 681 418 681T463 682T483 682Q499 682 499 672Q499 670 497 658Q492 641 487 638H485Q483 638 480 638T473 638T464 637T455 637Q416 636 405 634T387 623Q384 619 355 500Q348 474 340 442T328 395L324 380Q324 378 469 378H614L615 381Q615 384 646 504Q674 619 674 627T617 637Q594 637 587 639T580 648Q580 650 582 660Q586 677 588 679T604 682Q609 682 646 681T740 680Q802 680 835 681T871 682Q888 682 888 672Q888 645 876 638H874Q872 638 869 638T862 638T853 637T844 637Q805 636 794 634T776 623Q773 618 704 340T634 58Q634 51 638 51Q646 48 692 46H723Q729 38 729 37T726 19Q722 6 716 0H701Q664 2 567 2Q533 2 504 2T458 2T437 1Q420 1 420 10Q420 15 423 24Q428 43 433 45Q437 46 448 46H454Q481 46 514 49Q520 50 522 50T528 55T534 64T540 82T547 110T558 153Q565 181 569 198Q602 330 602 331T457 332H312L279 197Q245 63 245 58Q245 51 253 49T303 46H334Q340 38 340 37T337 19Q333 6 327 0H312Q275 2 178 2Q144 2 115 2T69 2T48 1Q31 1 31 10Q31 12 34 24Q39 43 44 45Q48 46 59 46H65Q92 46 125 49Q139 52 144 61Q147 65 216 339T285 628Q285 635 228 637Z"/><path id="MJX-12-TEX-I-1D45B" d="M21 287Q22 293 24 303T36 341T56 388T89 425T135 442Q171 442 195 424T225 390T231 369Q231 367 232 367L243 378Q304 442 382 442Q436 442 469 415T503 336T465 179T427 52Q427 26 444 26Q450 26 453 27Q482 32 505 65T540 145Q542 153 560 153Q580 153 580 145Q580 144 576 130Q568 101 554 73T508 17T439 -10Q392 -10 371 17T350 73Q350 92 386 193T423 345Q423 404 379 404H374Q288 404 229 303L222 291L189 157Q156 26 151 16Q138 -11 108 -11Q95 -11 87 -5T76 7T74 17Q74 30 112 180T152 343Q153 348 153 366Q153 405 129 405Q91 405 66 305Q60 285 60 284Q58 278 41 278H27Q21 284 21 287Z"/><path id="MJX-12-TEX-N-2265" d="M83 616Q83 624 89 630T99 636Q107 636 253 568T543 431T687 361Q694 356 694 346T687 331Q685 329 395 192L107 56H101Q83 58 83 76Q83 77 83 79Q82 86 98 95Q117 105 248 167Q326 204 378 228L626 346L360 472Q291 505 200 548Q112 589 98 597T83 616ZM84 -118Q84 -108 99 -98H678Q694 -104 694 -118Q694 -130 679 -138H98Q84 -131 84 -118Z"/><path id="MJX-12-TEX-I-1D703" d="M35 200Q35 302 74 415T180 610T319 704Q320 704 327 704T339 705Q393 701 423 656Q462 596 462 495Q462 380 417 261T302 66T168 -10H161Q125 -10 99 10T60 63T41 130T35 200ZM383 566Q383 668 330 668Q294 668 260 623T204 521T170 421T157 371Q206 370 254 370L351 371Q352 372 359 404T375 484T383 566ZM113 132Q113 26 166 26Q181 26 198 36T239 74T287 161T335 307L340 324H145Q145 321 136 286T120 208T113 132Z"/><path id="MJX-12-TEX-I-1D446" d="M308 24Q367 24 416 76T466 197Q466 260 414 284Q308 311 278 321T236 341Q176 383 176 462Q176 523 208 573T273 648Q302 673 343 688T407 704H418H425Q521 704 564 640Q565 640 577 653T603 682T623 704Q624 704 627 704T632 705Q645 705 645 698T617 577T585 459T569 456Q549 456 549 465Q549 471 550 475Q550 478 551 494T553 520Q553 554 544 579T526 616T501 641Q465 662 419 662Q362 662 313 616T263 510Q263 480 278 458T319 427Q323 425 389 408T456 390Q490 379 522 342T554 242Q554 216 546 186Q541 164 528 137T492 78T426 18T332 -20Q320 -22 298 -22Q199 -22 144 33L134 44L106 13Q83 -14 78 -18T65 -22Q52 -22 52 -14Q52 -11 110 221Q112 227 130 227H143Q149 221 149 216Q149 214 148 207T144 186T142 153Q144 114 160 87T203 47T255 29T308 24Z"/></defs><g stroke="currentColor" fill="currentColor" stroke-width="0" transform="scale(1,-1)"><g data-mml-node="math"><g data-mml-node="msub"><g data-mml-node="mi"><use data-c="1D43B" xlink:href="#MJX-12-TEX-I-1D43B"/></g><g data-mml-node="mi" transform="translate(864,-150) scale(0.707)"><use data-c="1D45B" xlink:href="#MJX-12-TEX-I-1D45B"/></g></g><g data-mml-node="mo" transform="translate(1616,0)"><use data-c="2265" xlink:href="#MJX-12-TEX-N-2265"/></g><g data-mml-node="msub" transform="translate(2671.8,0)"><g data-mml-node="mi"><use data-c="1D703" xlink:href="#MJX-12-TEX-I-1D703"/></g><g data-mml-node="mi" transform="translate(502,-150) scale(0.707)"><use data-c="1D446" xlink:href="#MJX-12-TEX-I-1D446"/></g></g></g></g></svg></mjx-container></div></div></div></foreignObject><text x="426" y="159" fill="light-dark(#000000, #ffffff)" font-family="&quot;Helvetica&quot;" font-size="12px" text-anchor="middle">\(H_n \geq \the...</text></switch></g></g><g><path d="M 6210 1550 L 6510 1550 Q 6610 1550 6610 1450 L 6610 580 Q 6610 480 6710 480 L 7346.32 480" fill="none" stroke="#000000" stroke-width="10" stroke-miterlimit="10" pointer-events="stroke" style="stroke: light-dark(rgb(0, 0, 0), rgb(255, 255, 255));"/><path d="M 7398.82 480 L 7328.82 515 L 7346.32 480 L 7328.82 445 Z" fill="#000000" stroke="#000000" stroke-width="10" stroke-miterlimit="10" pointer-events="all" style="fill: light-dark(rgb(0, 0, 0), rgb(255, 255, 255)); stroke: light-dark(rgb(0, 0, 0), rgb(255, 255, 255));"/></g><g><g transform="translate(-0.5 -0.5)scale(10)"><switch><foreignObject style="overflow: visible; text-align: left;" pointer-events="none" width="100%" height="100%" requiredFeatures="http://www.w3.org/TR/SVG11/feature#Extensibility"><div xmlns="http://www.w3.org/1999/xhtml" style="display: flex; align-items: unsafe center; justify-content: unsafe center; width: 1px; height: 1px; padding-top: 65px; margin-left: 663px;"><div style="box-sizing: border-box; font-size: 0; text-align: center; color: #000000; background-color: #ffffff; "><div style="display: inline-block; font-size: 11px; font-family: &quot;Helvetica&quot;; color: light-dark(#000000, #ffffff); line-height: 1.2; pointer-events: all; background-color: light-dark(#ffffff, var(--ge-dark-color, #121212)); white-space: nowrap; ">サブタスク判断に介入</div></div></div></foreignObject><text x="663" y="68" fill="light-dark(#000000, #ffffff)" font-family="&quot;Helvetica&quot;" font-size="11px" text-anchor="middle">サブタスク判断に介入</text></switch></g></g><g><path d="M 6210 1550 L 7346.32 1550" fill="none" stroke="#000000" stroke-width="10" stroke-miterlimit="10" pointer-events="stroke" style="stroke: light-dark(rgb(0, 0, 0), rgb(255, 255, 255));"/><path d="M 7398.82 1550 L 7328.82 1585 L 7346.32 1550 L 7328.82 1515 Z" fill="#000000" stroke="#000000" stroke-width="10" stroke-miterlimit="10" pointer-events="all" style="fill: light-dark(rgb(0, 0, 0), rgb(255, 255, 255)); stroke: light-dark(rgb(0, 0, 0), rgb(255, 255, 255));"/></g><g><g transform="translate(-0.5 -0.5)scale(10)"><switch><foreignObject style="overflow: visible; text-align: left;" pointer-events="none" width="100%" height="100%" requiredFeatures="http://www.w3.org/TR/SVG11/feature#Extensibility"><div xmlns="http://www.w3.org/1999/xhtml" style="display: flex; align-items: unsafe center; justify-content: unsafe center; width: 1px; height: 1px; padding-top: 147px; margin-left: 701px;"><div style="box-sizing: border-box; font-size: 0; text-align: center; color: #000000; background-color: #ffffff; "><div style="display: inline-block; font-size: 11px; font-family: &quot;Helvetica&quot;; color: light-dark(#000000, #ffffff); line-height: 1.2; pointer-events: all; background-color: light-dark(#ffffff, var(--ge-dark-color, #121212)); white-space: nowrap; ">構造に問題</div></div></div></foreignObject><text x="701" y="151" fill="light-dark(#000000, #ffffff)" font-family="&quot;Helvetica&quot;" font-size="11px" text-anchor="middle">構造に問題</text></switch></g></g><g><path d="M 6210 1550 L 6510 1550 Q 6610 1550 6610 1650 L 6610 2550 Q 6610 2650 6710 2650 L 7346.32 2650" fill="none" stroke="#000000" stroke-width="10" stroke-miterlimit="10" pointer-events="stroke" style="stroke: light-dark(rgb(0, 0, 0), rgb(255, 255, 255));"/><path d="M 7398.82 2650 L 7328.82 2685 L 7346.32 2650 L 7328.82 2615 Z" fill="#000000" stroke="#000000" stroke-width="10" stroke-miterlimit="10" pointer-events="all" style="fill: light-dark(rgb(0, 0, 0), rgb(255, 255, 255)); stroke: light-dark(rgb(0, 0, 0), rgb(255, 255, 255));"/></g><g><g transform="translate(-0.5 -0.5)scale(10)"><switch><foreignObject style="overflow: visible; text-align: left;" pointer-events="none" width="100%" height="100%" requiredFeatures="http://www.w3.org/TR/SVG11/feature#Extensibility"><div xmlns="http://www.w3.org/1999/xhtml" style="display: flex; align-items: unsafe center; justify-content: unsafe center; width: 1px; height: 1px; padding-top: 220px; margin-left: 701px;"><div style="box-sizing: border-box; font-size: 0; text-align: center; color: #000000; background-color: #ffffff; "><div style="display: inline-block; font-size: 11px; font-family: &quot;Helvetica&quot;; color: light-dark(#000000, #ffffff); line-height: 1.2; pointer-events: all; background-color: light-dark(#ffffff, var(--ge-dark-color, #121212)); white-space: nowrap; ">パートナー意図が不明</div></div></div></foreignObject><text x="701" y="223" fill="light-dark(#000000, #ffffff)" font-family="&quot;Helvetica&quot;" font-size="11px" text-anchor="middle">パートナー意図が不明</text></switch></g></g><g><rect x="5210" y="1300" width="1000" height="500" fill="#ffffff" stroke="#000000" stroke-width="10" pointer-events="all" style="fill: light-dark(#ffffff, var(--ge-dark-color, #121212)); stroke: light-dark(rgb(0, 0, 0), rgb(255, 255, 255));"/></g><g><g transform="translate(-0.5 -0.5)scale(10)"><switch><foreignObject style="overflow: visible; text-align: left;" pointer-events="none" width="100%" height="100%" requiredFeatures="http://www.w3.org/TR/SVG11/feature#Extensibility"><div xmlns="http://www.w3.org/1999/xhtml" style="display: flex; align-items: unsafe center; justify-content: unsafe center; width: 98px; height: 1px; padding-top: 155px; margin-left: 522px;"><div style="box-sizing: border-box; font-size: 0; text-align: center; color: #000000; "><div style="display: inline-block; font-size: 12px; font-family: &quot;Helvetica&quot;; color: light-dark(#000000, #ffffff); line-height: 1.2; pointer-events: all; white-space: normal; word-wrap: normal; ">Monitor (LLM)</div></div></div></foreignObject><text x="571" y="159" fill="light-dark(#000000, #ffffff)" font-family="&quot;Helvetica&quot;" font-size="12px" text-anchor="middle">Monitor (LLM)</text></switch></g></g><g><rect x="7410" y="100" width="800" height="500" fill="#ffffff" stroke="#000000" stroke-width="10" pointer-events="all" style="fill: light-dark(#ffffff, var(--ge-dark-color, #121212)); stroke: light-dark(rgb(0, 0, 0), rgb(255, 255, 255));"/></g><g><g transform="translate(-0.5 -0.5)scale(10)"><switch><foreignObject style="overflow: visible; text-align: left;" pointer-events="none" width="100%" height="100%" requiredFeatures="http://www.w3.org/TR/SVG11/feature#Extensibility"><div xmlns="http://www.w3.org/1999/xhtml" style="display: flex; align-items: unsafe center; justify-content: unsafe center; width: 78px; height: 1px; padding-top: 35px; margin-left: 742px;"><div style="box-sizing: border-box; font-size: 0; text-align: center; color: #000000; "><div style="display: inline-block; font-size: 12px; font-family: &quot;Helvetica&quot;; color: light-dark(#000000, #ffffff); line-height: 1.2; pointer-events: all; white-space: normal; word-wrap: normal; ">Planner</div></div></div></foreignObject><text x="781" y="39" fill="light-dark(#000000, #ffffff)" font-family="&quot;Helvetica&quot;" font-size="12px" text-anchor="middle">Planner</text></switch></g></g><g><rect x="7410" y="1300" width="800" height="500" fill="#ffffff" stroke="#000000" stroke-width="10" pointer-events="all" style="fill: light-dark(#ffffff, var(--ge-dark-color, #121212)); stroke: light-dark(rgb(0, 0, 0), rgb(255, 255, 255));"/></g><g><g transform="translate(-0.5 -0.5)scale(10)"><switch><foreignObject style="overflow: visible; text-align: left;" pointer-events="none" width="100%" height="100%" requiredFeatures="http://www.w3.org/TR/SVG11/feature#Extensibility"><div xmlns="http://www.w3.org/1999/xhtml" style="display: flex; align-items: unsafe center; justify-content: unsafe center; width: 78px; height: 1px; padding-top: 155px; margin-left: 742px;"><div style="box-sizing: border-box; font-size: 0; text-align: center; color: #000000; "><div style="display: inline-block; font-size: 12px; font-family: &quot;Helvetica&quot;; color: light-dark(#000000, #ffffff); line-height: 1.2; pointer-events: all; white-space: normal; word-wrap: normal; ">Reflector</div></div></div></foreignObject><text x="781" y="159" fill="light-dark(#000000, #ffffff)" font-family="&quot;Helvetica&quot;" font-size="12px" text-anchor="middle">Reflector</text></switch></g></g><g><rect x="7410" y="2400" width="800" height="500" fill="#ffffff" stroke="#000000" stroke-width="10" pointer-events="all" style="fill: light-dark(#ffffff, var(--ge-dark-color, #121212)); stroke: light-dark(rgb(0, 0, 0), rgb(255, 255, 255));"/></g><g><g transform="translate(-0.5 -0.5)scale(10)"><switch><foreignObject style="overflow: visible; text-align: left;" pointer-events="none" width="100%" height="100%" requiredFeatures="http://www.w3.org/TR/SVG11/feature#Extensibility"><div xmlns="http://www.w3.org/1999/xhtml" style="display: flex; align-items: unsafe center; justify-content: unsafe center; width: 78px; height: 1px; padding-top: 265px; margin-left: 742px;"><div style="box-sizing: border-box; font-size: 0; text-align: center; color: #000000; "><div style="display: inline-block; font-size: 12px; font-family: &quot;Helvetica&quot;; color: light-dark(#000000, #ffffff); line-height: 1.2; pointer-events: all; white-space: normal; word-wrap: normal; ">ToM</div></div></div></foreignObject><text x="781" y="269" fill="light-dark(#000000, #ffffff)" font-family="&quot;Helvetica&quot;" font-size="12px" text-anchor="middle">ToM</text></switch></g></g><g><path d="M 3910 2550 L 6210 2550 Q 6310 2550 6310 2450 L 6310 1800 Q 6310 1700 6410 1700 L 6580 1700 C 6580 1661 6640 1661 6640 1700 L 6640 1700 L 7346.32 1700" fill="none" stroke="#000000" stroke-width="10" stroke-miterlimit="10" pointer-events="stroke" style="stroke: light-dark(rgb(0, 0, 0), rgb(255, 255, 255));"/><path d="M 7398.82 1700 L 7328.82 1735 L 7346.32 1700 L 7328.82 1665 Z" fill="#000000" stroke="#000000" stroke-width="10" stroke-miterlimit="10" pointer-events="all" style="fill: light-dark(rgb(0, 0, 0), rgb(255, 255, 255)); stroke: light-dark(rgb(0, 0, 0), rgb(255, 255, 255));"/></g><g><g transform="translate(-0.5 -0.5)scale(10)"><switch><foreignObject style="overflow: visible; text-align: left;" pointer-events="none" width="100%" height="100%" requiredFeatures="http://www.w3.org/TR/SVG11/feature#Extensibility"><div xmlns="http://www.w3.org/1999/xhtml" style="display: flex; align-items: unsafe center; justify-content: unsafe center; width: 1px; height: 1px; padding-top: 255px; margin-left: 522px;"><div style="box-sizing: border-box; font-size: 0; text-align: center; color: #000000; background-color: #ffffff; "><div style="display: inline-block; font-size: 11px; font-family: &quot;Helvetica&quot;; color: light-dark(#000000, #ffffff); line-height: 1.2; pointer-events: all; background-color: light-dark(#ffffff, var(--ge-dark-color, #121212)); white-space: nowrap; ">検出</div></div></div></foreignObject><text x="522" y="259" fill="light-dark(#000000, #ffffff)" font-family="&quot;Helvetica&quot;" font-size="11px" text-anchor="middle">検出</text></switch></g></g><g><path d="M 3460 2100 L 3910 2550 L 3460 3000 L 3010 2550 Z" fill="#ffffff" stroke="#000000" stroke-width="10" stroke-miterlimit="10" pointer-events="all" style="fill: light-dark(#ffffff, var(--ge-dark-color, #121212)); stroke: light-dark(rgb(0, 0, 0), rgb(255, 255, 255));"/></g><g><g transform="translate(-0.5 -0.5)scale(10)"><switch><foreignObject style="overflow: visible; text-align: left;" pointer-events="none" width="100%" height="100%" requiredFeatures="http://www.w3.org/TR/SVG11/feature#Extensibility"><div xmlns="http://www.w3.org/1999/xhtml" style="display: flex; align-items: unsafe center; justify-content: unsafe center; width: 88px; height: 1px; padding-top: 255px; margin-left: 302px;"><div style="box-sizing: border-box; font-size: 0; text-align: center; color: #000000; "><div style="display: inline-block; font-size: 12px; font-family: &quot;Helvetica&quot;; color: light-dark(#000000, #ffffff); line-height: 1.2; pointer-events: all; white-space: normal; word-wrap: normal; "><mjx-container class="MathJax" jax="SVG"><svg xmlns="http://www.w3.org/2000/svg" width="10.023ex" height="2.262ex" role="img" focusable="false" viewBox="0 -750 4430 1000" xmlns:xlink="http://www.w3.org/1999/xlink" style="vertical-align: -0.566ex;"><defs><path id="MJX-13-TEX-I-1D436" d="M50 252Q50 367 117 473T286 641T490 704Q580 704 633 653Q642 643 648 636T656 626L657 623Q660 623 684 649Q691 655 699 663T715 679T725 690L740 705H746Q760 705 760 698Q760 694 728 561Q692 422 692 421Q690 416 687 415T669 413H653Q647 419 647 422Q647 423 648 429T650 449T651 481Q651 552 619 605T510 659Q484 659 454 652T382 628T299 572T226 479Q194 422 175 346T156 222Q156 108 232 58Q280 24 350 24Q441 24 512 92T606 240Q610 253 612 255T628 257Q648 257 648 248Q648 243 647 239Q618 132 523 55T319 -22Q206 -22 128 53T50 252Z"/><path id="MJX-13-TEX-N-28" d="M94 250Q94 319 104 381T127 488T164 576T202 643T244 695T277 729T302 750H315H319Q333 750 333 741Q333 738 316 720T275 667T226 581T184 443T167 250T184 58T225 -81T274 -167T316 -220T333 -241Q333 -250 318 -250H315H302L274 -226Q180 -141 137 -14T94 250Z"/><path id="MJX-13-TEX-I-1D460" d="M131 289Q131 321 147 354T203 415T300 442Q362 442 390 415T419 355Q419 323 402 308T364 292Q351 292 340 300T328 326Q328 342 337 354T354 372T367 378Q368 378 368 379Q368 382 361 388T336 399T297 405Q249 405 227 379T204 326Q204 301 223 291T278 274T330 259Q396 230 396 163Q396 135 385 107T352 51T289 7T195 -10Q118 -10 86 19T53 87Q53 126 74 143T118 160Q133 160 146 151T160 120Q160 94 142 76T111 58Q109 57 108 57T107 55Q108 52 115 47T146 34T201 27Q237 27 263 38T301 66T318 97T323 122Q323 150 302 164T254 181T195 196T148 231Q131 256 131 289Z"/><path id="MJX-13-TEX-N-29" d="M60 749L64 750Q69 750 74 750H86L114 726Q208 641 251 514T294 250Q294 182 284 119T261 12T224 -76T186 -143T145 -194T113 -227T90 -246Q87 -249 86 -250H74Q66 -250 63 -250T58 -247T55 -238Q56 -237 66 -225Q221 -64 221 250T66 725Q56 737 55 738Q55 746 60 749Z"/><path id="MJX-13-TEX-N-2264" d="M674 636Q682 636 688 630T694 615T687 601Q686 600 417 472L151 346L399 228Q687 92 691 87Q694 81 694 76Q694 58 676 56H670L382 192Q92 329 90 331Q83 336 83 348Q84 359 96 365Q104 369 382 500T665 634Q669 636 674 636ZM84 -118Q84 -108 99 -98H678Q694 -104 694 -118Q694 -130 679 -138H98Q84 -131 84 -118Z"/><path id="MJX-13-TEX-I-1D703" d="M35 200Q35 302 74 415T180 610T319 704Q320 704 327 704T339 705Q393 701 423 656Q462 596 462 495Q462 380 417 261T302 66T168 -10H161Q125 -10 99 10T60 63T41 130T35 200ZM383 566Q383 668 330 668Q294 668 260 623T204 521T170 421T157 371Q206 370 254 370L351 371Q352 372 359 404T375 484T383 566ZM113 132Q113 26 166 26Q181 26 198 36T239 74T287 161T335 307L340 324H145Q145 321 136 286T120 208T113 132Z"/></defs><g stroke="currentColor" fill="currentColor" stroke-width="0" transform="scale(1,-1)"><g data-mml-node="math"><g data-mml-node="mi"><use data-c="1D436" xlink:href="#MJX-13-TEX-I-1D436"/></g><g data-mml-node="mo" transform="translate(760,0)"><use data-c="28" xlink:href="#MJX-13-TEX-N-28"/></g><g data-mml-node="mi" transform="translate(1149,0)"><use data-c="1D460" xlink:href="#MJX-13-TEX-I-1D460"/></g><g data-mml-node="mo" transform="translate(1618,0)"><use data-c="29" xlink:href="#MJX-13-TEX-N-29"/></g><g data-mml-node="mo" transform="translate(2284.8,0)"><use data-c="2264" xlink:href="#MJX-13-TEX-N-2264"/></g><g data-mml-node="msub" transform="translate(3340.6,0)"><g data-mml-node="mi"><use data-c="1D703" xlink:href="#MJX-13-TEX-I-1D703"/></g><g data-mml-node="mi" transform="translate(502,-150) scale(0.707)"><use data-c="1D436" xlink:href="#MJX-13-TEX-I-1D436"/></g></g></g></g></svg></mjx-container></div></div></div></foreignObject><text x="346" y="259" fill="light-dark(#000000, #ffffff)" font-family="&quot;Helvetica&quot;" font-size="12px" text-anchor="middle">\(C(s) \leq \th...</text></switch></g></g></g><switch><g requiredFeatures="http://www.w3.org/TR/SVG11/feature#Extensibility"/><a transform="translate(0,-5)" xlink:href="https://www.drawio.com/doc/faq/svg-export-text-problems" target="_blank"><text text-anchor="middle" font-size="10px" x="50%" y="100%">Text is not SVG - cannot display</text></a></switch></svg>